<svg width="120" height="65" viewBox="0 0 120 65" fill="none" xmlns="http://www.w3.org/2000/svg">
<g clip-path="url(#clip0_103_251)">
<path d="M0.420166 0V64.7576L119.772 32.387L0.420166 0ZM2.05043 2.08261L113.675 32.387L2.01779 62.6586L2.05043 2.08261Z" fill="white"/>
<path d="M2.01782 2.08261V62.6586L113.642 32.387L2.01782 2.08261ZM105.083 33.1577L3.51769 60.6907V32.387V31.4851H12.8102L12.9243 30.206L13.1689 29.9764H20.016C20.016 29.6484 20.1627 28.1562 20.1627 28.1562L20.4072 27.9266H23.8471C23.8471 27.7298 23.8471 26.6639 23.8471 25.5652L23.7167 25.4176V25.2537L23.8308 25.0733H23.9286C23.9286 23.991 23.9286 23.0235 23.9286 22.9415L23.7819 22.7611V22.5971L23.896 22.4167V21.5804L24.1243 21.3508H26.0969V21.2524L26.2925 21.0228H26.6348C26.6348 20.6621 26.6348 16.5625 26.6348 16.5625C26.6348 16.5625 26.6348 16.1033 26.6348 15.9557L26.4718 15.7753L26.3903 15.6113V15.5293L26.5859 15.3654H27.3032V14.529L27.4011 14.3487V13.5943V13.3483C27.5159 13.06 27.7223 12.8179 27.988 12.6596C28.1153 12.5824 28.2637 12.548 28.4118 12.5612C28.53 12.5806 28.643 12.6241 28.7439 12.6889C28.8449 12.7538 28.9315 12.8387 28.9987 12.9384C29.1238 13.0701 29.2087 13.2352 29.2433 13.414V13.6107V14.4143V14.5455V15.3654L30.0095 15.4965L30.2051 15.6441V15.431V15.5785L30.0421 15.7917C30.0421 15.9229 30.0421 19.6782 30.1236 20.8097H30.466L30.6453 21.1048H31.5908L34.7372 21.318L34.9655 21.564C34.9655 21.564 34.9655 21.8264 34.9655 22.2527L35.1285 22.4331V22.5971L34.9981 22.7283C34.9981 23.3514 34.9981 24.1385 34.9981 24.9257L35.1611 25.106V25.27L35.047 25.3684C35.047 26.5655 35.047 27.615 35.047 27.7954L45.9046 27.8938L46.1328 28.1398C46.1328 28.1398 46.1328 29.3369 46.1328 29.6484L64.7015 29.8124L64.9298 29.9764L65.321 31.3047H92.8073H104.871L107.838 32.1082H107.708L105.083 33.1577Z" fill="#0063AC"/>
<path d="M3.51782 60.7071L105.018 33.1577H105.002L3.51782 60.7071Z" fill="#0063AC"/>
<path d="M99.1979 33.1741H93.0191H65.484L65.0927 34.24L64.8645 34.404L46.2958 34.5515C46.2958 34.8795 46.2958 36.0766 46.2958 36.0766L46.0675 36.3226L35.21 36.421C35.21 36.6178 35.21 37.8148 35.21 39.1103L35.3241 39.2251V39.3727L35.1611 39.5695C35.1611 40.2418 35.1611 40.9305 35.1611 41.4881L35.2915 41.6193V41.7833L35.1285 41.9636C35.1285 42.39 35.1285 42.6524 35.1285 42.6524L34.9002 42.882L31.7538 43.0951H30.8082L30.6289 43.4067H30.2866C30.2866 44.5382 30.205 48.3262 30.205 48.4246L30.3681 48.6378V48.7854L30.1725 48.9494L29.4226 49.0806V49.8841V50.0317V50.8352V51.0484C29.3805 51.2561 29.2796 51.447 29.1321 51.5983C28.9845 51.7496 28.7967 51.8548 28.5911 51.9011C28.314 51.9011 27.9227 51.8191 27.5803 51.0976V50.868V50.1137L27.4825 49.9169V49.097L26.7815 49.015L26.5696 48.851V48.769L26.6511 48.605L26.8141 48.4246C26.8141 48.2607 26.8141 47.8179 26.8141 47.8179C26.8141 47.8179 26.8141 43.7183 26.7326 43.3575H26.3902L26.1946 43.1116V43.3083H24.222L23.9937 43.0787C23.9937 43.0787 23.9937 42.4392 23.9937 42.2424L23.8796 42.0621V41.8981L24.0263 41.7177C24.0263 41.7177 24.0263 40.8321 24.0263 39.8646H23.9123L23.7981 39.7007V39.5367L23.9285 39.3727C23.9285 38.192 23.9285 36.9785 23.9285 36.7653H20.4887L20.2442 36.5522C20.2442 36.5522 20.13 35.0599 20.0974 34.7319H13.2503L13.0058 34.5024L12.8916 33.502H3.59912V32.6165V60.6907L105.083 33.1577L99.1979 33.1741Z" fill="white"/>
<path d="M105.018 33.1577H105.083L107.871 32.387H107.854L105.018 33.1577Z" fill="#0063AC"/>
<path d="M107.838 32.387L105.002 33.1577H105.018L107.855 32.387H107.838Z" fill="#0063AC"/>
<path d="M29.0312 50.7041V51.5076H27.9879V50.8681L27.6455 50.9665V51.2452V51.5076C27.9879 52.2291 28.3792 52.3439 28.6563 52.3111C28.8619 52.2648 29.0497 52.1596 29.1973 52.0083C29.3448 51.857 29.4456 51.6661 29.4877 51.4584V51.2452V50.4909L28.5748 50.7369L29.0312 50.7041Z" fill="#0063AC"/>
<path d="M102.149 32.387H3.51782V33.2725H12.8103L12.9244 34.2728L13.169 34.5024H20.0161C20.0161 34.8303 20.1628 36.3226 20.1628 36.3226L20.4073 36.5358H23.8961C23.8961 36.749 23.8961 37.9625 23.8961 39.1431L23.7657 39.3071V39.4711L23.8798 39.6351H23.9939C23.9939 40.6026 23.9939 41.4225 23.9939 41.4881L23.8472 41.6685V41.8325L23.9614 42.0129C23.9614 42.2097 23.9614 42.8492 23.9614 42.8492L24.1896 43.0788H26.1622V43.1608L26.3578 43.4067H26.7002C26.7002 43.7675 26.7817 47.8671 26.7817 47.8671C26.7817 47.8671 26.7817 48.3099 26.7817 48.4739L26.6187 48.6542L26.5371 48.8182V48.9002L26.7491 49.0642L27.4501 49.1462V49.9661L27.5479 50.1629V50.6385L27.8903 50.5401V50.4089H28.363L29.276 50.1629V50.0153V49.2118L30.0259 49.0806L30.2216 48.9166V48.769L30.0585 48.5559C30.0585 48.4083 30.0585 44.6694 30.14 43.5379H30.4824L30.6617 43.2264H31.6073L34.7537 43.0132L34.9819 42.7836C34.9819 42.7836 34.9819 42.5212 34.9819 42.0949L35.1449 41.9145V41.7505L35.0145 41.6193C35.0145 41.0618 35.0145 40.373 35.0145 39.7007L35.1776 39.5039V39.3563L35.0634 39.2415C35.0634 37.9461 35.0634 36.749 35.0634 36.5522L45.921 36.4538L46.1492 36.2078C46.1492 36.2078 46.1492 35.0107 46.1492 34.6828L64.718 34.5352L64.9462 34.3712L65.3375 33.3053H92.8726H104.855L107.692 32.5345L102.149 32.387Z" fill="#0063AC"/>
<path d="M27.988 50.7041V50.8353L28.4608 50.7041H27.988Z" fill="white"/>
<path d="M29.0314 51.4748V50.7041H28.4608L27.988 50.8353V51.4748H29.0314Z" fill="white"/>
<path d="M105.034 31.5835H104.936L107.871 32.3706H107.936L107.871 32.387H108.001L105.034 31.5835Z" fill="white"/>
<path d="M104.936 31.5834H92.9702H65.484L65.0927 30.2551L64.8645 30.0912L46.2958 29.9272C46.2958 29.6156 46.2958 28.4185 46.2958 28.4185L46.0675 28.1726L35.21 28.0742C35.21 27.8938 35.21 26.8443 35.21 25.6472L35.3241 25.5488V25.3848L35.1611 25.2044C35.1611 24.4173 35.1611 23.5646 35.1611 23.007L35.2915 22.8758V22.7119L35.1285 22.5315C35.1285 22.1051 35.1285 21.8427 35.1285 21.8427L34.9002 21.5968L31.7538 21.3836H30.8082L30.6289 21.0884H30.2866C30.2866 19.9569 30.205 16.1689 30.205 16.0705L30.3681 15.8573V15.7097V15.6113L30.1725 15.4637L29.4062 15.3326V14.5126V14.3814V13.5779V13.3811C29.3717 13.2023 29.2868 13.0373 29.1617 12.9056C29.0945 12.8059 29.0078 12.721 28.9069 12.6561C28.806 12.5913 28.693 12.5478 28.5748 12.5284C28.4267 12.5152 28.2782 12.5496 28.1509 12.6268C27.8852 12.7851 27.6789 13.0272 27.564 13.3156V13.5615V14.3159L27.4662 14.4962V15.3326H26.7489L26.5533 15.4965V15.4309L26.6348 15.5949L26.7978 15.7753C26.7978 15.9229 26.7978 16.3821 26.7978 16.3821C26.7978 16.3821 26.7978 20.4817 26.7978 20.8424H26.4555L26.2598 21.072V21.1704H24.2872L24.059 21.4V22.2363L23.9448 22.4167V22.5807L24.0916 22.7611C24.0916 22.8431 24.0916 23.8106 24.0916 24.8929H23.9937L23.8796 25.0732V25.2372L24.0101 25.3848C24.0101 26.4835 24.0101 27.5494 24.0101 27.7462H20.5702L20.3257 27.9758C20.3257 27.9758 20.2115 29.468 20.1789 29.796H13.3318L13.0873 30.0256L12.9731 31.3046H3.68066V32.2066H108.018L104.936 31.5834ZM29.0313 14.0699H27.9879V13.2991H29.0313V14.0699Z" fill="white"/>
<path d="M96.0024 32.3869V32.3705L6.61499 32.3869H25.5587H96.0024Z" fill="white"/>
<path d="M96.0024 32.3869H102.132L102.116 32.3705H96.0024V32.3869Z" fill="white"/>
<path d="M107.871 32.3705L107.887 32.3869H107.854H107.871L107.936 32.3705H107.871Z" fill="white"/>
<path d="M102.132 32.3869H107.887L107.871 32.3705H102.116L102.132 32.3869Z" fill="white"/>
<path d="M107.893 32.3228L107.847 32.3354L107.851 32.3508L107.897 32.3382L107.893 32.3228Z" fill="white"/>
<path d="M28.5586 14.0699L27.988 13.9223V14.0699H28.5586Z" fill="#0063AC"/>
<path d="M29.0314 14.0699V13.3156H27.988V13.9223L28.5586 14.0699H29.0314Z" fill="#0063AC"/>
</g>
<defs>
<clipPath id="clip0_103_251">
<rect width="120" height="65" fill="white"/>
</clipPath>
</defs>
</svg>
